<?xml version="1.0" encoding="utf-8"?>
<svg viewBox="0 0 957.273 536.307" xmlns="http://www.w3.org/2000/svg">
  <rect x="-0.83" y="-2.337" width="960" height="540" fill="#fafafa"/>
  <g transform="matrix(1, 0, 0, 1, 959.170227, 537.662903)">
    <path d="M-243 0C-234.5 -29.1 -226.1 -58.3 -216.2 -89.5C-206.3 -120.8 -195 -154.2 -171.8 -171.8C-148.7 -189.4 -113.7 -191.3 -83 -200.5C-52.4 -209.7 -26.2 -226.4 0 -243L0 0Z" style="fill: rgb(30, 34, 169);"/>
  </g>
  <g transform="matrix(1, 0, 0, 1, -0.829743, -2.337104)">
    <path d="M243 0C218.5 23.1 194 46.3 185.7 76.9C177.4 107.6 185.2 145.7 171.8 171.8C158.5 197.9 124 211.9 91.8 221.7C59.7 231.6 29.8 237.3 0 243L0 0Z" style="fill: rgba(239, 148, 36, 0.95);"/>
  </g>
</svg>
